<?xml version="1.0" encoding="UTF-8"?>
<svg id="Layer_2" data-name="Layer 2" xmlns="http://www.w3.org/2000/svg" viewBox="0 0 1282.53 199.33">
  <defs>
    <style>
      .cls-1 {
        fill: #3fae56;
      }

      .cls-2 {
        fill: #9ecd94;
      }

      .cls-3 {
        fill: #5cb45f;
      }

      .cls-4 {
        fill: #0d8a3a;
      }

      .cls-5 {
        fill: #21a44c;
      }

      .cls-6 {
        fill: #191e1b;
      }
    </style>
  </defs>
  <g id="Layer_1-2" data-name="Layer 1">
    <g>
      <g>
        <path class="cls-3" d="m53.79,48.73c-7.13,3.72-11.61,11.09-11.61,19.13v2.88c1.4-1.6,3.03-3.01,4.86-4.15l25.64-16.02c.1,1.83-.81,3.58-2.37,4.55l-21.31,13.31s-.06.03-.08.05c-4.22,2.67-6.74,7.35-6.74,12.35v7.09l26.44-13.78c7.13-3.72,11.61-11.09,11.61-19.13v-20.06l-26.44,13.78Z"/>
        <path class="cls-1" d="m42.18,105v2.88c1.4-1.6,3.03-3.01,4.86-4.15l25.64-16.02c.1,1.83-.81,3.58-2.37,4.55l-21.31,13.31s-.06.03-.08.05c-4.22,2.67-6.74,7.35-6.74,12.35v7.09l26.44-13.78c7.13-3.72,11.61-11.09,11.61-19.13v-20.06l-26.44,13.78c-7.13,3.72-11.61,11.09-11.61,19.13Z"/>
        <path class="cls-5" d="m42.18,142.13v2.88c1.4-1.6,3.03-3.01,4.86-4.15l25.64-16.02c.1,1.83-.81,3.58-2.37,4.55l-21.31,13.31s-.06.03-.08.05c-4.22,2.67-6.74,7.35-6.74,12.35v7.09l26.44-13.78c7.13-3.72,11.61-11.09,11.61-19.13v-20.06l-26.44,13.78c-7.13,3.72-11.61,11.09-11.61,19.13Z"/>
        <path class="cls-4" d="m42.18,179.26v2.88c1.4-1.6,3.03-3.01,4.86-4.15l25.64-16.02c.1,1.83-.81,3.58-2.37,4.55l-21.31,13.31s-.06.03-.08.05c-4.22,2.67-6.74,7.35-6.74,12.35v7.09l26.44-13.78c7.13-3.72,11.61-11.09,11.61-19.13v-20.06l-26.44,13.78c-7.13,3.72-11.61,11.09-11.61,19.13Z"/>
        <path class="cls-3" d="m26.44,48.73L0,34.96v20.06c0,8.04,4.47,15.42,11.61,19.13l26.44,13.78v-7.09c0-4.99-2.52-9.68-6.74-12.35-.03-.02-.06-.03-.08-.05l-21.31-13.31c-1.56-.97-2.46-2.72-2.37-4.55l25.64,16.02c1.83,1.14,3.46,2.55,4.86,4.15v-2.88c0-8.04-4.47-15.42-11.61-19.13Z"/>
        <path class="cls-1" d="m26.44,85.86L0,72.09v20.06c0,8.04,4.47,15.42,11.61,19.13l26.44,13.78v-7.09c0-4.99-2.52-9.68-6.74-12.35-.03-.02-.06-.03-.08-.05l-21.31-13.31c-1.56-.97-2.46-2.72-2.37-4.55l25.64,16.02c1.83,1.14,3.46,2.55,4.86,4.15v-2.88c0-8.04-4.47-15.42-11.61-19.13Z"/>
        <path class="cls-5" d="m26.44,123L0,109.22v20.06c0,8.04,4.47,15.42,11.61,19.13l26.44,13.78v-7.09c0-4.99-2.52-9.68-6.74-12.35-.03-.02-.06-.03-.08-.05l-21.31-13.31c-1.56-.97-2.46-2.72-2.37-4.55l25.64,16.02c1.83,1.14,3.46,2.55,4.86,4.15v-2.88c0-8.04-4.47-15.42-11.61-19.13Z"/>
        <path class="cls-4" d="m26.44,160.13L0,146.35v20.06c0,8.04,4.47,15.42,11.61,19.13l26.44,13.78v-7.09c0-4.99-2.52-9.68-6.74-12.35-.03-.02-.06-.03-.08-.05l-21.31-13.31c-1.56-.97-2.46-2.72-2.37-4.55l25.64,16.02c1.83,1.14,3.46,2.55,4.86,4.15v-2.88c0-8.04-4.47-15.42-11.61-19.13Z"/>
      </g>
      <g>
        <path class="cls-6" d="m168.6,118.46h-21.58v26.1c0,3.25-2.63,5.89-5.89,5.89h-5.16V61.59h40.37c9.48,0,16.86,2.79,22.15,8.38,5.29,5.58,7.93,12.27,7.93,20.06.08,7.28-1.99,13.52-6.22,18.72-4.23,5.2-10.66,8.15-19.29,8.82l29.32,32.88h-11.27c-1.71,0-3.33-.74-4.45-2.03l-25.91-29.95Zm21.77-15.04c3.34-3.43,5.01-7.81,5.01-13.14.08-4.91-1.57-9.27-4.95-13.07-3.39-3.81-8.08-5.71-14.09-5.71h-29.32v37.07h28.81c6.35,0,11.19-1.71,14.53-5.14Z"/>
        <path class="cls-6" d="m295.16,73.78c7.91,9.05,11.83,19.89,11.74,32.5,0,5.92-.95,11.59-2.86,17.01s-4.65,10.3-8.25,14.66c-3.6,4.36-8.31,7.83-14.15,10.41-5.84,2.58-12.44,3.87-19.8,3.87s-13.98-1.29-19.86-3.87c-5.88-2.58-10.62-6.05-14.22-10.41-3.6-4.36-6.35-9.22-8.25-14.6s-2.86-11.06-2.86-17.07c0-13.2,4.13-24.2,12.38-33,8.25-8.8,19.23-13.2,32.94-13.2,14.22.08,25.28,4.65,33.19,13.71Zm-2.73,15.17c-2.37-5.29-6.2-9.71-11.49-13.26s-11.61-5.37-18.98-5.46c-10.83,0-19.25,3.45-25.26,10.35-6.01,6.9-9.01,15.46-9.01,25.7s2.96,18.19,8.89,25.13c5.92,6.94,14.39,10.41,25.39,10.41s19.29-3.51,25.13-10.54c5.84-7.02,8.76-15.36,8.76-25.01.08-6.26-1.06-12.04-3.43-17.33Z"/>
        <path class="cls-6" d="m358.46,140.16h42.48c3.25,0,5.89,2.63,5.89,5.89v4.4h-59.41v-82.97c0-3.25,2.63-5.89,5.89-5.89h5.16v78.57Z"/>
        <path class="cls-6" d="m465.32,61.59l39.86,88.85h-8.12c-2.32,0-4.42-1.36-5.37-3.48l-7.2-16.07h-50.77l-7.08,16.04c-.94,2.13-3.05,3.51-5.38,3.51h-8.22l39.86-88.85h12.44Zm-6.22,11.17l-21.07,47.98h42.14l-21.07-47.98Z"/>
        <path class="cls-6" d="m528.36,67.64l49.62,61.99v-62.15c0-3.25,2.63-5.89,5.89-5.89h5.03v88.85h0c-4.82,0-9.37-2.18-12.39-5.93l-49.81-61.85v61.9c0,3.25-2.63,5.89-5.89,5.89h-5.03V61.59h0c4.89,0,9.52,2.22,12.58,6.05Z"/>
        <path class="cls-6" d="m609.66,61.46h32.37c7.28,0,13.84,1.23,19.68,3.68,5.84,2.45,10.54,5.75,14.09,9.9,3.55,4.15,6.26,8.78,8.12,13.9,1.86,5.12,2.79,10.47,2.79,16.06s-.89,11.4-2.67,16.69c-1.78,5.29-4.42,10.11-7.93,14.47-3.51,4.36-8.21,7.83-14.09,10.41-5.88,2.58-12.55,3.87-19.99,3.87h-32.37V61.46Zm57.44,67.72c5.71-6.81,8.57-14.92,8.57-24.31s-2.92-16.67-8.76-23.1-14.13-9.65-24.88-9.65h-21.32v67.28h21.32c11,0,19.36-3.41,25.07-10.22Z"/>
        <path class="cls-4" d="m806.25,106.53c-.25,22.98-14.34,45.95-45.57,45.95s-45.7-22.47-45.7-45.82,14.98-46.84,45.7-46.84,45.82,23.48,45.57,46.71Zm-74.76.38c.38,14.6,8.25,30.21,29.2,30.21s28.81-15.74,29.07-30.34c.25-14.98-8.12-31.73-29.07-31.73s-29.58,16.88-29.2,31.86Z"/>
        <path class="cls-4" d="m895.9,150.45h-17.25c-1.7,0-3.32-.74-4.44-2.02l-24.14-27.69h-16.12v23.82c0,3.25-2.63,5.89-5.89,5.89h-10.87V61.46c14.09,0,28.18.13,42.27.13,20.94.13,31.99,14.09,31.99,29.45,0,12.19-5.59,24.5-22.47,27.93l26.91,30.34v1.14Zm-61.94-73.24v28.43h25.51c10.66,0,15.23-7.11,15.23-14.22s-4.7-14.22-15.23-14.22h-25.51Z"/>
        <path class="cls-4" d="m966.61,83.3c-5.97-5.71-14.85-8.89-22.59-8.89-19.04,0-30.59,14.47-30.59,32.75,0,14.6,8.5,29.7,30.59,29.7,6.13,0,11.58-1.17,17.54-5.24,1.59-1.08,2.51-2.9,2.51-4.82v-12.78s-22.72,0-22.72,0v-9.09c0-3.25,2.63-5.89,5.89-5.89h32.2v35.16c0,1.51-.58,2.97-1.62,4.06-8.5,8.95-19.13,14.22-33.8,14.22-33.38,0-46.97-21.96-46.97-45.32,0-25.01,15.61-48.11,46.97-48.11,11.93,0,23.86,4.57,33,13.58l-10.41,10.66Z"/>
        <path class="cls-4" d="m1053.28,133.69h-46.46l-6.05,13.31c-.96,2.1-3.05,3.45-5.36,3.45h-14.36l39.86-88.85h18.28l39.86,88.85h-14.46c-2.32,0-4.43-1.36-5.37-3.48l-5.93-13.27Zm-23.23-53.44l-16.5,37.83h33l-16.5-37.83Z"/>
        <path class="cls-4" d="m1147.85,61.46c-3.25,0-5.89,2.63-5.89,5.89v49.33l-41.77-52.85c-1.11-1.41-2.82-2.24-4.61-2.24h-10.73v88.85h10.87c3.25,0,5.89-2.64,5.89-5.89v-54.03l44.85,57.64c1.12,1.43,2.83,2.27,4.64,2.27h7.63V61.46h-10.87Z"/>
        <path class="cls-4" d="m1173.87,144.56V61.59h10.74c3.25,0,5.88,2.64,5.88,5.89v82.97h-10.74c-3.25,0-5.88-2.63-5.88-5.89Z"/>
        <path class="cls-4" d="m1282.53,139.28c-9.14,9.01-20.94,13.2-33.76,13.2-33,0-46.97-22.72-47.09-45.82-.13-23.23,14.98-46.84,47.09-46.84,12.06,0,23.48,4.57,32.62,13.58l-7.44,7.18c-2.03,1.96-5.14,2.14-7.46.54-5.25-3.61-11.53-5.31-17.72-5.31-21.45,0-30.72,15.99-30.59,30.85.13,14.72,8.63,30.08,30.59,30.08,6.2,0,13.05-2.04,18.54-5.85,2.37-1.64,5.56-1.39,7.59.66l7.64,7.73Z"/>
      </g>
    </g>
    <path class="cls-4" d="m1173.87,36.01h8.63c4.42,0,8,3.58,8,8v8.63h-8.63c-4.42,0-8-3.58-8-8v-8.63h0Z" transform="translate(1226.51 -1137.86) rotate(90)"/>
    <path class="cls-2" d="m52.58,41.54l-12.47,14.55-12.48-14.55c-6.38-7.46-6.38-19.53,0-26.97L40.11,0l12.47,14.57c6.4,7.44,6.4,19.51,0,26.97Z"/>
  </g>
</svg>