<?xml version="1.0" encoding="UTF-8"?>
<svg id="Layer_2" data-name="Layer 2" xmlns="http://www.w3.org/2000/svg" viewBox="0 0 80.23 199.33">
  <defs>
    <style>
      .cls-1 {
        fill: #3fae56;
      }

      .cls-2 {
        fill: #9ecd94;
      }

      .cls-3 {
        fill: #5cb45f;
      }

      .cls-4 {
        fill: #0d8a3a;
      }

      .cls-5 {
        fill: #21a44c;
      }
    </style>
  </defs>
  <g id="Layer_1-2" data-name="Layer 1">
    <g>
      <path class="cls-3" d="m53.79,48.73c-7.13,3.72-11.61,11.09-11.61,19.13v2.88c1.4-1.6,3.03-3.01,4.86-4.15l25.64-16.02c.1,1.83-.81,3.58-2.37,4.55l-21.31,13.31s-.06.03-.08.05c-4.22,2.67-6.74,7.35-6.74,12.35v7.09l26.44-13.78c7.13-3.72,11.61-11.09,11.61-19.13v-20.06l-26.44,13.78Z"/>
      <path class="cls-1" d="m42.18,105v2.88c1.4-1.6,3.03-3.01,4.86-4.15l25.64-16.02c.1,1.83-.81,3.58-2.37,4.55l-21.31,13.31s-.06.03-.08.05c-4.22,2.67-6.74,7.35-6.74,12.35v7.09l26.44-13.78c7.13-3.72,11.61-11.09,11.61-19.13v-20.06l-26.44,13.78c-7.13,3.72-11.61,11.09-11.61,19.13Z"/>
      <path class="cls-5" d="m42.18,142.13v2.88c1.4-1.6,3.03-3.01,4.86-4.15l25.64-16.02c.1,1.83-.81,3.58-2.37,4.55l-21.31,13.31s-.06.03-.08.05c-4.22,2.67-6.74,7.35-6.74,12.35v7.09l26.44-13.78c7.13-3.72,11.61-11.09,11.61-19.13v-20.06l-26.44,13.78c-7.13,3.72-11.61,11.09-11.61,19.13Z"/>
      <path class="cls-4" d="m42.18,179.26v2.88c1.4-1.6,3.03-3.01,4.86-4.15l25.64-16.02c.1,1.83-.81,3.58-2.37,4.55l-21.31,13.31s-.06.03-.08.05c-4.22,2.67-6.74,7.35-6.74,12.35v7.09l26.44-13.78c7.13-3.72,11.61-11.09,11.61-19.13v-20.06l-26.44,13.78c-7.13,3.72-11.61,11.09-11.61,19.13Z"/>
      <path class="cls-3" d="m26.44,48.73L0,34.96v20.06c0,8.04,4.47,15.42,11.61,19.13l26.44,13.78v-7.09c0-4.99-2.52-9.68-6.74-12.35-.03-.02-.06-.03-.08-.05l-21.31-13.31c-1.56-.97-2.46-2.72-2.37-4.55l25.64,16.02c1.83,1.14,3.46,2.55,4.86,4.15v-2.88c0-8.04-4.47-15.42-11.61-19.13Z"/>
      <path class="cls-1" d="m26.44,85.86L0,72.09v20.06c0,8.04,4.47,15.42,11.61,19.13l26.44,13.78v-7.09c0-4.99-2.52-9.68-6.74-12.35-.03-.02-.06-.03-.08-.05l-21.31-13.31c-1.56-.97-2.46-2.72-2.37-4.55l25.64,16.02c1.83,1.14,3.46,2.55,4.86,4.15v-2.88c0-8.04-4.47-15.42-11.61-19.13Z"/>
      <path class="cls-5" d="m26.44,123L0,109.22v20.06c0,8.04,4.47,15.42,11.61,19.13l26.44,13.78v-7.09c0-4.99-2.52-9.68-6.74-12.35-.03-.02-.06-.03-.08-.05l-21.31-13.31c-1.56-.97-2.46-2.72-2.37-4.55l25.64,16.02c1.83,1.14,3.46,2.55,4.86,4.15v-2.88c0-8.04-4.47-15.42-11.61-19.13Z"/>
      <path class="cls-4" d="m26.44,160.13L0,146.35v20.06c0,8.04,4.47,15.42,11.61,19.13l26.44,13.78v-7.09c0-4.99-2.52-9.68-6.74-12.35-.03-.02-.06-.03-.08-.05l-21.31-13.31c-1.56-.97-2.46-2.72-2.37-4.55l25.64,16.02c1.83,1.14,3.46,2.55,4.86,4.15v-2.88c0-8.04-4.47-15.42-11.61-19.13Z"/>
    </g>
    <path class="cls-2" d="m52.58,41.54l-12.47,14.55-12.48-14.55c-6.38-7.46-6.38-19.53,0-26.97L40.11,0l12.47,14.57c6.4,7.44,6.4,19.51,0,26.97Z"/>
  </g>
</svg>